<svg width="50" height="50" fill="none" xmlns="http://www.w3.org/2000/svg"><rect width="50" height="50" rx="5" fill="#C4C4C4"/><rect width="50" height="50" rx="5" fill="#FB1B86"/><path fill-rule="evenodd" clip-rule="evenodd" d="M40 25c0 8.284-6.716 15-15 15-8.284 0-15-6.716-15-15 0-8.284 6.716-15 15-15 8.284 0 15 6.716 15 15zm-14.462-3.926c-1.46.606-4.375 1.862-8.748 3.767-.71.283-1.082.559-1.116.829-.058.457.515.637 1.292.881l.329.105c.766.249 1.796.54 2.331.552.486.01 1.029-.19 1.628-.6 4.085-2.76 6.194-4.153 6.326-4.183.094-.021.224-.049.311.03.088.078.079.225.07.265-.057.241-2.3 2.328-3.462 3.408a35.4 35.4 0 00-.671.63c-.118.12-.238.237-.353.348-.713.685-1.245 1.2.03 2.04.613.404 1.103.738 1.591 1.07.534.364 1.067.726 1.756 1.179.175.115.343.234.507.35.621.444 1.18.841 1.87.779.4-.038.815-.414 1.025-1.538.496-2.657 1.473-8.412 1.7-10.785a2.643 2.643 0 00-.025-.59.632.632 0 00-.215-.406c-.179-.146-.456-.177-.581-.175-.564.01-1.43.311-5.595 2.044z" fill="#fff"/></svg>